<?xml version="1.0" encoding="utf-8"?>
<!-- Generator: Adobe Illustrator 14.0.0, SVG Export Plug-In . SVG Version: 6.00 Build 43363)  -->
<!DOCTYPE svg PUBLIC "-//W3C//DTD SVG 1.1//EN" "http://www.w3.org/Graphics/SVG/1.1/DTD/svg11.dtd">
<svg className="facebook-icon" version="1.1" id="Layer_1" xmlns="http://www.w3.org/2000/svg" xmlnsXlink="http://www.w3.org/1999/xlink" x="0px" y="0px" width="250px" height="250px" viewBox="0 0 250 250" enableBackground="new 0 0 250 250" xmlnsspace="preserve">
	<path className="social-icon-bg" fill="#8e8285" d="M250.896,23.961v202.188c0,13.223-10.707,23.929-23.884,23.929h-57.376l-0.046-86.842h42.643v-30.791
	h-42.643v-23.564c0-2.974,0-3.02,0.184-3.98c0.137-0.777,0.366-1.601,0.687-2.333c0.686-1.51,1.83-2.837,3.156-3.797
	c1.372-0.961,2.929-1.464,4.575-1.647c0.183-0.046,3.249-0.092,5.491-0.046h7.046l28.229,0.046V64.911
	c-9.425-1.281-18.804-2.104-28.229-2.425l-7.046-0.274c-2.426-0.046-4.118-0.32-8.603,0c-7.731,0.64-15.327,3.432-21.687,7.87
	c-6.359,4.484-11.485,10.569-14.779,17.615c-1.738,3.523-2.928,7.321-3.569,11.119c-0.777,3.66-0.731,8.418-0.777,10.065
	l-0.045,23.564h-30.793v30.791h30.655l-0.137,30.381l0.502,56.461H24.826c-13.223,0-23.93-10.706-23.93-23.929V23.961
	c0-13.223,10.707-23.884,23.93-23.884h202.187C240.189,0.078,250.896,10.739,250.896,23.961z"/>
</svg>
