<?xml version="1.0" encoding="utf-8"?>
<!-- Generator: Adobe Illustrator 14.0.0, SVG Export Plug-In . SVG Version: 6.00 Build 43363)  -->
<!DOCTYPE svg PUBLIC "-//W3C//DTD SVG 1.1//EN" "http://www.w3.org/Graphics/SVG/1.1/DTD/svg11.dtd">
<svg version="1.1" id="Layer_1" xmlns="http://www.w3.org/2000/svg" xmlns:xlink="http://www.w3.org/1999/xlink" x="0px" y="0px"
	 width="250px" height="250px" viewBox="0 0 250 250" enable-background="new 0 0 250 250" xml:space="preserve">
<path fill="#414042" d="M250.664,24.021v202.2c0,13.197-10.744,23.857-23.857,23.857h-202.2c-13.283,0-23.943-10.66-23.943-23.857
	v-202.2c0-13.283,10.66-23.942,23.943-23.942h202.2C239.92,0.078,250.664,10.737,250.664,24.021z M157.432,126.271
	c0,17.367-14.121,31.489-31.488,31.489c-17.366,0-31.489-14.122-31.489-31.489c0-17.366,14.122-31.487,31.489-31.487
	C143.311,94.783,157.432,108.905,157.432,126.271z M220.887,86.672c0-30.536-24.811-55.345-55.343-55.345H86.343
	C55.81,31.328,31,56.137,31,86.672v79.198c0,30.535,24.81,55.344,55.344,55.344h79.201c30.532,0,55.343-24.809,55.343-55.344V86.672
	z M204.569,86.672v79.198c0,21.566-17.462,39.027-39.027,39.027H86.343c-21.565,0-39.026-17.461-39.026-39.027V86.672
	c0-21.47,17.461-39.029,39.026-39.029h79.201C187.107,47.645,204.569,65.203,204.569,86.672z M173.748,126.271
	c0-26.335-21.468-47.806-47.805-47.806c-26.337,0-47.807,21.471-47.807,47.806c0,26.432,21.469,47.901,47.807,47.901
	C152.28,174.173,173.748,152.703,173.748,126.271z M182.223,80.197c0-5.923-4.824-10.66-10.744-10.66
	c-5.924,0-10.746,4.737-10.746,10.66c0,5.921,4.822,10.744,10.746,10.744C177.398,90.941,182.223,86.118,182.223,80.197z"/>
</svg>
