<?xml version="1.0" encoding="utf-8"?>
<!-- Generator: Adobe Illustrator 14.0.0, SVG Export Plug-In . SVG Version: 6.00 Build 43363)  -->
<!DOCTYPE svg PUBLIC "-//W3C//DTD SVG 1.1//EN" "http://www.w3.org/Graphics/SVG/1.1/DTD/svg11.dtd">
<svg version="1.1" id="Layer_1" xmlns="http://www.w3.org/2000/svg" xmlns:xlink="http://www.w3.org/1999/xlink" x="0px" y="0px"
	 width="250px" height="250px" viewBox="0 0 250 250" enable-background="new 0 0 250 250" xml:space="preserve">
<path fill="#414042" d="M226.576,0.078H24.389c-13.223,0-23.93,10.704-23.93,23.925v202.15c0,13.22,10.707,23.925,23.93,23.925
	h202.187c13.177,0,23.883-10.705,23.883-23.925V24.003C250.459,10.782,239.753,0.078,226.576,0.078z M195.051,88.413
	c0,0,2.745,42.635-24.89,73.925c-27.59,31.336-82.54,47.759-132.458,18.848c0,0,31.067,3.705,51.794-15.646
	c0,0-24.845-1.464-33.172-24.749c0,0,8.556,2.379,17.112-1.417c0,0-27.086-4.575-29.1-34.401c0,0,12.583,5.765,17.752,4.575
	c0,0-28.871-16.743-13.131-48.582c0,0,29.466,44.877,75.083,37.42c0,0-1.281-1.602-1.281-9.927c0-8.28,9.059-34.539,36.649-34.539
	c12.262,0,20.406,5.672,25.622,11.986c13.086-2.242,23.472-9.058,23.609-9.195c-0.046,0.183-6.863,14.455-14.962,19.762
	c0,0,8.556,0.641,19.491-3.979C213.17,72.494,200.815,85.851,195.051,88.413z"/>
</svg>
